<svg width="8" height="8" viewBox="0 0 8 8" fill="none" xmlns="http://www.w3.org/2000/svg">
<g clip-path="url(#clip0_134_2572)">
<path d="M1.16936 7.58034C0.979364 7.58034 0.789375 7.51034 0.639375 7.36034C0.349375 7.07034 0.349375 6.59034 0.639375 6.30034L6.2994 0.640352C6.5894 0.350352 7.06939 0.350352 7.35939 0.640352C7.64939 0.930352 7.64939 1.41035 7.35939 1.70035L1.69936 7.36034C1.55936 7.51034 1.35936 7.58034 1.16936 7.58034Z" fill="white"/>
<path d="M6.82939 7.58034C6.63939 7.58034 6.4494 7.51034 6.2994 7.36034L0.639375 1.70035C0.349375 1.41035 0.349375 0.930352 0.639375 0.640352C0.929365 0.350352 1.40936 0.350352 1.69936 0.640352L7.35939 6.30034C7.64939 6.59034 7.64939 7.07034 7.35939 7.36034C7.20939 7.51034 7.01939 7.58034 6.82939 7.58034Z" fill="white"/>
</g>
<defs>
<clipPath id="clip0_134_2572">
<rect width="8" height="8" fill="white"/>
</clipPath>
</defs>
</svg>
