<svg width="11" height="18" viewBox="0 0 11 18" fill="none" xmlns="http://www.w3.org/2000/svg">
<path d="M3.72168 8.07168C3.72168 8.07168 3.54882 8.54186 3.53866 8.58891C3.52849 8.63591 3.5997 9.41437 3.5997 9.41437L3.60478 9.5241L3.62973 9.59727V9.6861V9.7331L3.41668 10.2347C3.41668 10.2347 3.23366 10.569 3.2235 10.5847C3.21333 10.6003 3.11671 11.0444 3.11671 11.0444L2.75061 12.1363C2.75061 12.1363 2.58792 12.0893 2.58792 12.2304C2.58792 12.3714 2.47605 12.4812 2.53202 12.5386C2.53202 12.5386 1.749 13.5103 1.51516 13.8812C1.28126 14.2522 0.793183 15.809 0.793183 15.809C0.793183 15.809 0.541495 15.8064 0.437251 15.8638C0.333006 15.9213 0.348253 16.1433 0.411839 16.2164C0.411839 16.2164 0.284724 16.4306 0.279642 16.5769C0.279642 16.5769 -0.0152466 16.8694 0.0508231 17.4284C0.0508231 17.4284 0 17.5068 0 17.5382C0 17.5695 -5.46376e-09 17.9561 0.0304937 17.9666C0.0609874 17.977 0.73722 18.0083 0.752467 17.9979C0.767714 17.9875 0.813455 17.8882 0.813455 17.8882L1.07785 17.9195C1.07785 17.9195 1.52526 17.9822 2.13029 17.9508C2.73531 17.9195 3.05567 17.7941 3.05567 17.7419C3.05567 17.6897 2.97943 17.5904 2.97943 17.5904C2.97943 17.5904 2.99468 17.1881 2.771 17.1568C2.54726 17.1254 2.05411 17.1881 2.05411 17.1881L1.97274 17.1202L1.55581 16.6239C1.55581 16.6239 1.64735 16.206 1.64227 16.1747C1.63719 16.1433 1.54057 16.0336 1.54057 16.0336C1.54057 16.0336 2.62356 14.3722 2.87779 14.0013C3.13202 13.6304 3.72179 13.0975 3.72179 13.0975C3.72179 13.0975 3.81841 13.0975 3.86924 13.0714C3.92006 13.0453 4.15904 12.7841 4.16921 12.6953C4.17937 12.6064 4.16921 12.5855 4.16921 12.5855C4.16921 12.5855 5.28269 11.0182 5.35892 10.9451C5.43521 10.872 5.51145 10.7727 5.51145 10.7727L5.62332 10.6735C5.62332 10.6735 6.47749 11.8332 6.52831 11.9325C6.57913 12.0318 6.53847 12.0631 6.63001 12.1624C6.72155 12.2617 6.85375 12.3819 6.869 12.3819C6.88424 12.3819 7.37237 12.0423 7.37237 12.0423L7.55539 12.0945C7.55539 12.0945 7.56048 13.7088 7.67743 13.9648C7.79438 14.2208 8.12484 15.4276 8.12484 15.4276C8.12484 15.4276 7.88586 15.4903 7.83503 15.6053C7.78421 15.7202 7.9011 15.9135 8.04347 15.971C8.04347 15.971 8.0333 16.2427 8.12484 16.3628C8.12484 16.3628 8.07402 16.8226 8.22654 16.9845C8.22654 16.9845 8.32316 17.2405 8.34858 17.2509C8.37399 17.2614 9.12143 17.0733 9.17734 17.042C9.23324 17.0107 9.24854 16.8435 9.24854 16.8435C9.24854 16.8435 9.92478 16.7703 10.1485 16.7181C10.3722 16.6659 11.0051 15.9489 11 15.9332C10.9949 15.9175 10.9009 15.8352 10.9009 15.8352C10.9009 15.8352 10.6492 15.5296 10.2857 15.762C10.0116 15.9373 10.0163 15.9449 10.0163 15.9449L9.60442 15.9292C9.60442 15.9292 9.09088 15.6471 9.08071 15.6053C9.07055 15.5635 8.97901 15.2866 8.9536 15.2449C8.92819 15.2031 8.87737 15.1979 8.87737 15.1979C8.87737 15.1979 8.79599 14.6597 8.78074 14.0381C8.7655 13.4164 8.71976 12.0737 8.74517 11.8752C8.77058 11.6767 8.64855 11.3632 8.64855 11.3632C8.64855 11.3632 8.69429 11.3371 8.66379 11.3005C8.6333 11.2639 7.93674 10.0884 7.89094 10.0048C7.84514 9.92122 7.39264 9.01743 7.35707 8.99132C7.32149 8.96521 7.27569 8.94954 7.26045 8.94432C7.2452 8.9391 7.0571 8.48459 7.0113 8.44275C6.96556 8.40098 6.84861 8.31736 6.84861 8.31736L6.72149 7.89419C6.72149 7.89419 6.65537 7.78446 6.65537 7.75835C6.65537 7.73224 6.71127 7.53896 6.72658 7.49712C6.74188 7.45529 6.81303 7.07917 6.81303 7.07917L6.87408 7.03217C6.87408 7.03217 7.47275 7.51671 7.57572 7.57943C7.6787 7.6421 7.9342 7.64993 7.9342 7.64993C7.9342 7.64993 8.23544 7.9908 8.26974 7.99471C8.30405 7.99863 8.40702 8.01038 8.40702 8.01038L8.60916 8.2455L8.67396 8.23375L8.87991 8.54197C8.87991 8.54197 8.80616 8.61775 8.84433 8.65953C8.88245 8.70131 9.05536 8.78753 9.12905 8.78753C9.2028 8.78753 9.31461 8.73531 9.31461 8.73531L9.34257 8.66481C9.34257 8.66481 9.42648 8.6622 9.45952 8.63348C9.49255 8.60476 9.50018 8.52114 9.50018 8.52114C9.50018 8.52114 9.58155 8.48459 9.59426 8.44536C9.60696 8.4062 9.5968 8.31997 9.5968 8.31997C9.5968 8.31997 9.64 8.24419 9.62729 8.18675C9.61458 8.1293 9.51288 7.98041 9.44935 7.93858C9.38582 7.8968 9.04514 7.74007 9.04514 7.74007L9.0426 7.66957C9.0426 7.66957 8.78074 7.42663 8.77312 7.42401C8.7655 7.4214 8.75025 7.42401 8.75025 7.42401C8.75025 7.42401 8.0359 6.71872 8.02065 6.70306C8.00541 6.68739 7.57578 5.9821 7.56053 5.96121C7.54529 5.94033 7.49955 5.90638 7.49955 5.90638L7.51225 5.69221C7.51225 5.69221 7.71814 5.18281 7.71306 5.09926C7.70798 5.01565 7.63683 4.69175 7.63683 4.69175C7.63683 4.69175 7.88597 3.57896 7.88089 3.54762C7.87581 3.51629 7.74869 3.30728 7.74869 3.30728C7.74869 3.30728 8.10971 2.87758 8.12114 2.8345C8.13258 2.79142 8.14401 2.64644 8.14401 2.64644C8.14401 2.64644 8.49862 2.63469 8.57491 2.56022C8.6512 2.48574 8.60922 2.23502 8.60922 2.23502C8.60922 2.23502 8.6944 2.17627 8.67148 2.07699C8.67148 2.07699 8.70451 2.00904 8.70197 1.97771C8.69943 1.94637 8.66639 1.78443 8.66639 1.78443C8.66639 1.78443 8.8113 1.75832 8.8113 1.69037C8.8113 1.62242 8.72992 1.3952 8.72992 1.3952C8.72992 1.3952 8.79605 1.31942 8.78074 1.23064C8.78074 1.23064 8.8672 1.12092 8.81124 0.885859C8.81124 0.885859 8.88747 0.739578 8.85444 0.606354L8.83411 0.650742L8.80616 0.431352L8.78074 0.530633C8.78074 0.530633 8.70445 0.332131 8.50364 0.180629L8.52397 0.235461C8.52397 0.235461 8.25704 0.0239039 7.91133 0.00295588C7.56562 -0.0179328 7.43342 0.0787367 7.43342 0.0787367L7.48678 0.0970142C7.48678 0.0970142 6.83088 0.423519 6.75465 0.763138C6.67841 1.1027 6.8716 1.70609 6.8716 1.70609L6.89955 1.64343L6.86143 1.96993L6.92496 1.8576L6.93258 1.98299L6.97324 1.94643C6.97324 1.94643 6.98849 2.0901 6.98341 2.10838C6.97832 2.12666 6.93512 2.28599 6.93512 2.28599C6.93512 2.28599 6.8716 2.30427 6.85889 2.367C6.84618 2.42966 6.82586 2.51328 6.82586 2.51328C6.82586 2.51328 6.38606 2.51328 6.12294 2.72483L6.02759 2.57594C6.02759 2.57594 5.92462 1.86674 5.24203 2.05088C5.24203 2.05088 4.04469 1.86674 3.98364 1.90199C3.92266 1.93724 3.73577 2.60336 3.73577 2.60336L3.54131 2.60728L3.46502 2.49363C3.46502 2.49363 3.12947 2.44272 3.11036 2.45838C3.0913 2.47405 2.99595 2.90114 2.99595 2.94422C2.99595 2.98731 3.02644 3.03437 3.02644 3.03437C3.02644 3.03437 2.23199 4.89553 1.98798 5.38137C1.74392 5.86721 1.82021 6.27472 1.91683 6.32172C1.91683 6.32172 2.0198 6.74098 2.19901 6.80756C2.37822 6.87414 2.51931 6.65867 2.51931 6.65867L2.67565 6.7919C2.67565 6.7919 2.87265 8.47415 1.67276 8.58903L1.68801 8.66737C1.68801 8.66737 2.06936 8.77187 2.4354 8.38003C2.80149 7.98819 2.79641 6.87023 2.79641 6.87023C2.79641 6.87023 3.07605 7.06351 3.0913 7.06873C3.10655 7.07395 3.81836 7.1314 3.81836 7.1314C3.81836 7.1314 3.98105 7.31945 4.01662 7.31945C4.0522 7.31945 4.18948 7.17317 4.18948 7.17317L4.23522 7.21495L3.92 7.86802C3.92 7.86802 3.71151 7.92018 3.72168 8.07168Z" fill="#141414"/>
</svg>
