<svg width="475" height="42" viewBox="0 0 475 42" fill="none" xmlns="http://www.w3.org/2000/svg">
<path d="M474.663 7.67368C447.341 7.67368 420.018 7.49551 392.716 7.73307C376.021 7.89144 359.327 8.5249 342.652 9.23759C327.325 9.89089 311.998 10.663 296.692 11.831C271.868 13.7315 247.004 15.4539 222.279 18.1858C156.055 25.4711 89.9108 33.2512 23.7267 40.7939C18.9284 41.3482 13.8923 42.6152 9.37161 41.6452C5.98111 40.9127 1.83714 37.7056 0.548358 34.5777C-1.45422 29.7076 2.31311 27.332 7.23033 26.8766C35.1871 24.2239 63.1438 21.4325 91.1204 18.8193C143.286 13.9295 195.433 8.88124 247.638 4.40714C270.718 2.42745 293.916 1.21987 317.074 0.60617C324.906 0.408201 332.738 0.24985 340.59 0.0122872C347.331 -0.185682 354.33 2.09095 360.794 0.922928C370.43 -0.8192 379.769 3.06099 388.889 1.47724C401.143 -0.64103 412.9 2.46706 424.896 2.44727C437.506 2.40767 450.136 2.44729 462.747 2.84323C466.851 2.98181 470.916 4.32801 475 5.13968C474.901 5.97115 474.802 6.82241 474.703 7.67368H474.663Z" fill="#F9C26D"/>
</svg>
