<svg width="95" height="79" viewBox="0 0 95 79" fill="none" xmlns="http://www.w3.org/2000/svg">
<path d="M47.4722 0.0516968V22.2275" stroke="white" stroke-width="0.19183"/>
<path d="M31.0014 3.355L40.7668 23.265" stroke="white" stroke-width="0.19183"/>
<path d="M18.0997 12.6674L35.0547 26.9605" stroke="white" stroke-width="0.19183"/>
<path d="M10.5525 25.9105L31.7219 32.5156" stroke="white" stroke-width="0.19183"/>
<path d="M63.6748 3.25117L53.9094 23.1612" stroke="white" stroke-width="0.19183"/>
<path d="M76.5764 12.5636L59.6214 26.8567" stroke="white" stroke-width="0.19183"/>
<path d="M84.1234 25.8067L62.954 32.4118" stroke="white" stroke-width="0.19183"/>
<path fill-rule="evenodd" clip-rule="evenodd" d="M0.146118 40.5258C5.98955 39.998 22.5714 39.0205 47.4721 39.0205C72.3729 39.0205 88.9547 39.998 94.7982 40.5258" fill="white"/>
<path fill-rule="evenodd" clip-rule="evenodd" d="M34.649 37.9155C35.1833 29.5961 42.6716 25.8578 47.4721 25.8475C52.2726 25.8578 59.7609 29.5961 60.2952 37.9155" fill="white"/>
<path d="M5.49323 52.0794H12.8961V53.4304H7.00816V63.5273H5.49323V52.0794ZM12.7711 57.9517C12.7711 56.0516 13.2813 54.5653 14.3017 53.4928C15.322 52.4152 16.6392 51.8764 18.253 51.8764C19.3098 51.8764 20.2625 52.1289 21.1111 52.6339C21.9596 53.1388 22.6052 53.8442 23.0477 54.7501C23.4954 55.6507 23.7192 56.6737 23.7192 57.819C23.7192 58.9799 23.485 60.0185 23.0164 60.9347C22.5479 61.851 21.8841 62.546 21.0252 63.0197C20.1662 63.4882 19.2395 63.7225 18.2452 63.7225C17.1676 63.7225 16.2045 63.4622 15.3559 62.9416C14.5073 62.421 13.8644 61.7104 13.4271 60.8098C12.9898 59.9092 12.7711 58.9565 12.7711 57.9517ZM14.3329 57.9752C14.3329 59.3547 14.7025 60.4428 15.4418 61.2393C16.1862 62.0306 17.1181 62.4262 18.2374 62.4262C19.3775 62.4262 20.3145 62.0254 21.0486 61.2237C21.7878 60.4219 22.1575 59.2844 22.1575 57.8112C22.1575 56.8793 21.9987 56.0672 21.6811 55.3748C21.3688 54.6772 20.908 54.1384 20.2989 53.7583C19.695 53.3731 19.0157 53.1805 18.2608 53.1805C17.1884 53.1805 16.2643 53.5501 15.4886 54.2893C14.7182 55.0234 14.3329 56.252 14.3329 57.9752ZM25.6793 63.5273V52.0794H29.9976C30.7577 52.0794 31.3381 52.1159 31.739 52.1887C32.3012 52.2825 32.7724 52.4621 33.1524 52.7276C33.5324 52.9879 33.837 53.3549 34.066 53.8286C34.3003 54.3024 34.4174 54.823 34.4174 55.3904C34.4174 56.3639 34.1077 57.1891 33.4882 57.8658C32.8687 58.5374 31.7494 58.8732 30.1304 58.8732H27.1942V63.5273H25.6793ZM27.1942 57.5222H30.1538C31.1325 57.5222 31.8275 57.34 32.2388 56.9756C32.65 56.6112 32.8557 56.0984 32.8557 55.4373C32.8557 54.9583 32.7333 54.5496 32.4886 54.2113C32.2492 53.8677 31.9316 53.6412 31.536 53.5319C31.2809 53.4642 30.8097 53.4304 30.1225 53.4304H27.1942V57.5222ZM36.3697 52.0794H37.744V61.1456L43.835 52.0794H45.3577V63.5273H43.9834V54.4846L37.8846 63.5273H36.3697V52.0794ZM47.2163 60.2944L48.6609 59.9196C48.7702 60.4766 49.0618 61.0336 49.5355 61.5907C50.0145 62.1477 50.647 62.4262 51.4331 62.4262C52.2348 62.4262 52.8673 62.2206 53.3306 61.8093C53.794 61.3981 54.0256 60.9009 54.0256 60.3178C54.0256 59.6879 53.781 59.1881 53.2916 58.8185C52.8022 58.4437 52.1359 58.2563 51.2925 58.2563H50.5663V56.9366C51.2639 56.9366 51.7975 56.8975 52.1671 56.8194C52.5367 56.7361 52.8621 56.5305 53.1432 56.2025C53.4296 55.8693 53.5727 55.4919 53.5727 55.0702C53.5727 54.5705 53.3775 54.1358 52.9871 53.7661C52.6018 53.3965 52.0786 53.2117 51.4175 53.2117C50.8396 53.2117 50.345 53.3575 49.9338 53.649C49.5277 53.9353 49.2466 54.318 49.0904 54.7969C48.9342 55.2707 48.8561 55.6247 48.8561 55.8589L47.4037 55.531C47.7629 53.0998 49.106 51.8842 51.4331 51.8842C52.5524 51.8842 53.44 52.1966 54.0959 52.8213C54.7519 53.4408 55.0798 54.167 55.0798 55C55.0798 56.0672 54.5749 56.8949 53.5649 57.4832C54.148 57.6446 54.6347 57.9752 55.0252 58.4749C55.4208 58.9695 55.6187 59.563 55.6187 60.2554C55.6187 61.2393 55.236 62.0644 54.4707 62.7308C53.7107 63.3919 52.7007 63.7225 51.4409 63.7225C49.2752 63.7225 47.867 62.5798 47.2163 60.2944ZM56.8603 57.9517C56.8603 56.0516 57.3705 54.5653 58.3908 53.4928C59.4112 52.4152 60.7283 51.8764 62.3421 51.8764C63.3989 51.8764 64.3516 52.1289 65.2002 52.6339C66.0488 53.1388 66.6943 53.8442 67.1368 54.7501C67.5845 55.6507 67.8084 56.6737 67.8084 57.819C67.8084 58.9799 67.5741 60.0185 67.1056 60.9347C66.637 61.851 65.9733 62.546 65.1143 63.0197C64.2553 63.4882 63.3287 63.7225 62.3343 63.7225C61.2567 63.7225 60.2936 63.4622 59.445 62.9416C58.5965 62.421 57.9535 61.7104 57.5162 60.8098C57.0789 59.9092 56.8603 58.9565 56.8603 57.9517ZM58.4221 57.9752C58.4221 59.3547 58.7917 60.4428 59.5309 61.2393C60.2754 62.0306 61.2072 62.4262 62.3265 62.4262C63.4666 62.4262 64.4037 62.0254 65.1377 61.2237C65.877 60.4219 66.2466 59.2844 66.2466 57.8112C66.2466 56.8793 66.0878 56.0672 65.7702 55.3748C65.4579 54.6772 64.9972 54.1384 64.3881 53.7583C63.7842 53.3731 63.1048 53.1805 62.3499 53.1805C61.2775 53.1805 60.3535 53.5501 59.5778 54.2893C58.8073 55.0234 58.4221 56.252 58.4221 57.9752ZM69.8153 63.5273V52.0794H71.3302V56.7804H77.2806V52.0794H78.7955V63.5273H77.2806V58.1313H71.3302V63.5273H69.8153ZM84.2383 63.5273V53.4304H80.4666V52.0794H89.5406V53.4304H85.7533V63.5273H84.2383Z" fill="#FBFAF7"/>
<path d="M12.6995 68.562H13.4895V73.8275H16.6007V68.562H17.3948V73.8275H17.9405V76.1894H17.2401V74.532H12.6995V68.562ZM18.8853 74.532V68.562H23.2019V69.2665H19.6753V71.095H22.9779V71.7954H19.6753V73.8275H23.3404V74.532H18.8853ZM24.4562 74.532V68.562H25.2462V71.0135H28.3493V68.562H29.1393V74.532H28.3493V71.718H25.2462V74.532H24.4562ZM31.9777 74.532V69.2665H30.0108V68.562H34.7428V69.2665H32.7677V74.532H31.9777ZM35.5573 74.532V68.562H37.8092C38.2056 68.562 38.5083 68.581 38.7174 68.619C39.0106 68.6679 39.2563 68.7615 39.4544 68.9C39.6526 69.0357 39.8114 69.2271 39.9309 69.4742C40.0531 69.7212 40.1142 69.9927 40.1142 70.2886C40.1142 70.7963 39.9526 71.2266 39.6296 71.5796C39.3065 71.9298 38.7228 72.1049 37.8785 72.1049H36.3473V74.532H35.5573ZM36.3473 71.4004H37.8907C38.4011 71.4004 38.7635 71.3054 38.978 71.1153C39.1925 70.9253 39.2997 70.6579 39.2997 70.3131C39.2997 70.0633 39.2359 69.8502 39.1083 69.6737C38.9834 69.4946 38.8178 69.3765 38.6115 69.3194C38.4785 69.2841 38.2328 69.2665 37.8744 69.2665H36.3473V71.4004ZM44.9602 74.532V69.2665H42.9933V68.562H47.7253V69.2665H45.7502V74.532H44.9602ZM47.937 68.562H48.7352L50.6818 72.2189L52.384 68.562H53.1699L50.9302 73.2044C50.6505 73.7854 50.4211 74.1655 50.242 74.3447C50.0628 74.5238 49.8062 74.6134 49.4723 74.6134C49.2687 74.6134 49.0189 74.5659 48.723 74.4709V73.7949C48.9348 73.9171 49.1587 73.9781 49.3949 73.9781C49.5877 73.9781 49.7533 73.9171 49.8917 73.7949C50.0329 73.67 50.1877 73.3877 50.356 72.9479L47.937 68.562ZM53.8419 74.532V68.562H56.0939C56.4902 68.562 56.7929 68.581 57.002 68.619C57.2952 68.6679 57.5409 68.7615 57.7391 68.9C57.9372 69.0357 58.0961 69.2271 58.2155 69.4742C58.3377 69.7212 58.3988 69.9927 58.3988 70.2886C58.3988 70.7963 58.2372 71.2266 57.9142 71.5796C57.5911 71.9298 57.0074 72.1049 56.1631 72.1049H54.6319V74.532H53.8419ZM54.6319 71.4004H56.1753C56.6857 71.4004 57.0481 71.3054 57.2626 71.1153C57.4771 70.9253 57.5843 70.6579 57.5843 70.3131C57.5843 70.0633 57.5205 69.8502 57.3929 69.6737C57.268 69.4946 57.1024 69.3765 56.8961 69.3194C56.7631 69.2841 56.5174 69.2665 56.159 69.2665H54.6319V71.4004ZM59.4168 68.562H60.1336V73.2899L63.31 68.562H64.1041V74.532H63.3873V69.8163L60.2069 74.532H59.4168V68.562ZM65.0733 72.8461L65.8266 72.6506C65.8837 72.9411 66.0357 73.2316 66.2827 73.5221C66.5325 73.8125 66.8624 73.9578 67.2723 73.9578C67.6904 73.9578 68.0203 73.8506 68.2619 73.6361C68.5035 73.4216 68.6243 73.1623 68.6243 72.8583C68.6243 72.5298 68.4967 72.2691 68.2415 72.0764C67.9863 71.8809 67.6388 71.7832 67.199 71.7832H66.8203V71.095C67.1841 71.095 67.4623 71.0746 67.6551 71.0339C67.8479 70.9904 68.0175 70.8832 68.1641 70.7122C68.3135 70.5384 68.3881 70.3416 68.3881 70.1217C68.3881 69.8611 68.2863 69.6344 68.0827 69.4416C67.8818 69.2489 67.6089 69.1525 67.2642 69.1525C66.9628 69.1525 66.7049 69.2285 66.4904 69.3805C66.2787 69.5298 66.1321 69.7294 66.0506 69.9792C65.9692 70.2262 65.9284 70.4108 65.9284 70.533L65.171 70.3619C65.3583 69.0941 66.0588 68.4602 67.2723 68.4602C67.856 68.4602 68.3189 68.6231 68.661 68.9489C69.003 69.2719 69.1741 69.6507 69.1741 70.085C69.1741 70.6416 68.9107 71.0732 68.384 71.38C68.6881 71.4642 68.9419 71.6366 69.1456 71.8972C69.3519 72.1551 69.4551 72.4646 69.4551 72.8257C69.4551 73.3388 69.2555 73.7691 68.8564 74.1166C68.4601 74.4614 67.9334 74.6338 67.2764 74.6338C66.147 74.6338 65.4126 74.0379 65.0733 72.8461ZM70.4161 74.532V68.562H71.6052L73.0183 72.789C73.1486 73.1827 73.2437 73.4773 73.3034 73.6727C73.3713 73.4555 73.4771 73.1365 73.621 72.7157L75.0504 68.562H76.1133V74.532H75.3517V69.5353L73.6169 74.532H72.9043L71.1776 69.4498V74.532H70.4161ZM76.7323 74.532L79.025 68.562H79.8761L82.3194 74.532H81.4195L80.7231 72.7239H78.2268L77.5711 74.532H76.7323ZM78.4548 72.0805H80.4788L79.8557 70.4271C79.6657 69.9249 79.5245 69.5122 79.4322 69.1891C79.3562 69.5719 79.2489 69.952 79.1105 70.3294L78.4548 72.0805Z" fill="#FBFAF7"/>
</svg>
