<svg width="356" height="96" viewBox="0 0 356 96" fill="none" xmlns="http://www.w3.org/2000/svg">
<g clip-path="url(#clip0_2102_532)">
<path d="M46.9315 46.8112C40.0608 53.3731 33.9931 44.4972 27.9519 37.4418C22.3166 30.8643 16.8029 23.3334 11.3049 15.8398C7.30585 10.3762 4.19602 13.9103 2.06682 21.3157C0.0521753 28.3373 -0.0476699 37.7523 3.84222 42.613C12.2861 53.1817 20.7346 64.623 29.5114 71.8775C36.4209 77.6094 43.8795 79.2979 50.9906 79.4058C53.9798 79.4813 57.2789 72.2589 59.3755 65.8794C61.0998 60.6525 62.1759 59.1315 64.8733 60.9638C73.4991 66.8958 82.22 74.5699 90.8642 76.0992C96.6022 77.0944 102.485 69.8492 107.892 64.0642C110.913 60.837 113.274 59.874 116.668 62.2869C127.365 69.8096 138.156 76.7974 148.982 81.6967C152.298 83.2018 156.222 78.8017 159.241 74.3982C163.034 68.8266 166.577 69.4883 170.782 72.4394C182.659 80.7899 195.33 89.2617 205.38 70.8522C211.807 59.0704 217.158 63.4578 223.031 69.495C232.16 78.8232 241.204 77.6807 250.315 77.5225C251.849 77.4639 253.722 76.8612 254.736 74.4696C258.992 64.4784 263.525 69.2764 268.53 72.8801C275.425 77.8536 282.514 80.0117 289.489 83.6919C293.4 85.7435 296.538 83.3088 298.47 74.8863C300.746 64.9327 304.146 65.9793 308.019 67.7667C317.838 72.2491 327.666 76.5793 337.498 79.8847C343.388 81.8608 346.673 75.0184 348.506 61.3628C348.964 57.93 350.565 55.8576 351.391 52.6763C352.543 48.2682 354.288 43.5718 354.22 38.7929C354.184 35.2271 351.881 29.433 350.243 27.9017C343.349 21.4482 338.993 26.1685 337.225 43.0472C336.235 52.4583 334.189 52.2708 331.443 50.668C322.208 45.3285 313.001 39.191 303.739 34.6494C298.222 31.9381 292.964 32.5943 289.914 47.8522C289.167 51.5997 285.691 53.8196 283.747 52.5277C277.34 48.2945 271.041 42.3875 264.735 36.6704C260.838 33.1382 256.763 30.5616 253.881 38.1855C246.591 57.4383 237.823 51.929 229.068 43.725C222.65 37.7087 216.437 29.5594 210.202 21.9422C205.594 16.3121 199.944 23.2447 199.05 38.1926C198.37 49.3375 196.097 51.4735 192.394 51.5011C182.965 51.5957 173.871 46.9339 164.988 35.7748C158.503 27.6358 154.343 31.8553 150.255 47.3805C149.441 50.4855 146.841 52.7098 145.349 51.6283C135.205 44.2743 124.973 37.2652 115.077 27.397C107.017 19.3562 104.461 20.0991 99.7734 37.2032C98.2857 42.6107 94.9574 48.3162 92.6373 47.3423C83.9436 43.7656 75.3235 37.6058 66.688 32.1674C65.7028 31.5599 64.6614 29.854 63.8851 27.9483C55.5609 7.35662 49.0657 17.737 47.2704 40.6506C47.0934 42.7825 47.0355 45.0236 46.9344 46.887L46.9315 46.8112Z" fill="white"/>
</g>
<defs>
<clipPath id="clip0_2102_532">
<rect width="355.873" height="95.4137" fill="white"/>
</clipPath>
</defs>
</svg>
