<svg width="356" height="96" viewBox="0 0 356 96" fill="none" xmlns="http://www.w3.org/2000/svg">
<g clip-path="url(#clip0_2102_533)">
<path d="M46.9315 48.6024C40.0608 42.0405 33.9931 50.9164 27.9519 57.9717C22.3166 64.5493 16.8029 72.0802 11.3049 79.5738C7.30585 85.0374 4.19602 81.5032 2.06682 74.0978C0.0521753 67.0763 -0.0476699 57.6612 3.84222 52.8006C12.2861 42.2319 20.7346 30.7906 29.5114 23.5361C36.4209 17.8042 43.8795 16.1157 50.9906 16.0078C53.9798 15.9322 57.2789 23.1547 59.3755 29.5342C61.0998 34.7611 62.1759 36.2821 64.8733 34.4498C73.4991 28.5177 82.22 20.8437 90.8642 19.3144C96.6022 18.3192 102.485 25.5644 107.892 31.3494C110.913 34.5765 113.274 35.5395 116.668 33.1266C127.365 25.604 138.156 18.6162 148.982 13.7169C152.298 12.2118 156.222 16.6119 159.241 21.0154C163.034 26.5869 166.577 25.9253 170.782 22.9741C182.659 14.6237 195.33 6.15188 205.38 24.5613C211.807 36.3432 217.158 31.9557 223.031 25.9186C232.16 16.5904 241.204 17.7328 250.315 17.8911C251.849 17.9497 253.722 18.5524 254.736 20.9439C258.992 30.9352 263.525 26.1372 268.53 22.5335C275.425 17.56 282.514 15.4019 289.489 11.7217C293.4 9.67008 296.538 12.1048 298.47 20.5273C300.746 30.4808 304.146 29.4343 308.019 27.6469C317.838 23.1645 327.666 18.8343 337.498 15.5288C343.388 13.5528 346.673 20.3951 348.506 34.0507C348.964 37.4836 350.565 39.556 351.391 42.7373C352.543 47.1454 354.288 51.8418 354.22 56.6207C354.184 60.1865 351.881 65.9806 350.243 67.5118C343.349 73.9654 338.993 69.2451 337.225 52.3664C336.235 42.9553 334.189 43.1428 331.443 44.7456C322.208 50.0851 313.001 56.2226 303.739 60.7642C298.222 63.4755 292.964 62.8193 289.914 47.5614C289.167 43.8139 285.691 41.594 283.747 42.8859C277.34 47.1191 271.041 53.0261 264.735 58.7432C260.838 62.2753 256.763 64.8519 253.881 57.2281C246.591 37.9753 237.823 43.4845 229.068 51.6885C222.65 57.7049 216.437 65.8542 210.202 73.4714C205.594 79.1015 199.944 72.1689 199.05 57.221C198.37 46.0761 196.097 43.94 192.394 43.9124C182.965 43.8179 173.871 48.4797 164.988 59.6388C158.503 67.7777 154.343 63.5583 150.255 48.033C149.441 44.9281 146.841 42.7038 145.349 43.7852C135.205 51.1393 124.973 58.1484 115.077 68.0165C107.017 76.0573 104.461 75.3145 99.7734 58.2104C98.2857 52.8028 94.9574 47.0974 92.6373 48.0713C83.9436 51.648 75.3235 57.8078 66.688 63.2461C65.7028 63.8536 64.6614 65.5595 63.8851 67.4653C55.5609 88.057 49.0657 77.6765 47.2704 54.7629C47.0934 52.6311 47.0355 50.3899 46.9344 48.5266L46.9315 48.6024Z" fill="white"/>
</g>
<defs>
<clipPath id="clip0_2102_533">
<rect width="355.873" height="95.4137" fill="white"/>
</clipPath>
</defs>
</svg>
